<svg width="42" height="41" viewBox="0 0 42 41" fill="none" xmlns="http://www.w3.org/2000/svg">
<path d="M29.1565 8.1229H30.8154C32.1853 8.1229 33.4331 8.95413 34.0179 10.258L38.998 21.3641C39.2212 21.8622 39.3374 22.4061 39.3374 22.9568V33.3247C39.3374 34.8679 38.148 36.1185 36.6819 36.1185H5.05029C3.58406 36.1185 2.39551 34.8679 2.39551 33.3247V22.9553C2.39551 22.4061 2.5111 21.863 2.73393 21.3656L7.71463 10.258C8.29956 8.95413 9.54688 8.1229 10.9173 8.1229H29.1565Z" stroke="#F9FAFB" stroke-width="1.5" stroke-miterlimit="10"/>
<path d="M9.54324 36.1177V37.354C9.54324 38.8154 8.41765 40 7.02907 40H4.90938C3.52081 40 2.39551 38.8162 2.39551 37.3548V32.9855" stroke="#F9FAFB" stroke-width="1.5" stroke-miterlimit="10"/>
<path d="M32.1897 36.1177V37.3533C32.1897 38.8147 33.3156 40 34.7054 40H36.8211C38.2109 40 39.3376 38.8147 39.3376 37.3533V32.9855" stroke="#F9FAFB" stroke-width="1.5" stroke-miterlimit="10"/>
<path d="M3.27543 19.968H2.19605C1.36346 19.968 0.786015 19.0947 1.07574 18.2732L1.44425 17.2297C1.61782 16.7376 2.06456 16.4105 2.56428 16.4105H4.8954" stroke="#F9FAFB" stroke-width="1.5" stroke-miterlimit="10"/>
<path d="M38.4298 19.968H39.8046C40.6368 19.968 41.2144 19.0947 40.9242 18.2732L40.5562 17.2297C40.3822 16.7376 39.9358 16.4105 39.436 16.4105H36.7249" stroke="#F9FAFB" stroke-width="1.5" stroke-miterlimit="10"/>
<path d="M39.1868 21.9028C34.7344 22.6372 28.1775 23.1016 20.866 23.1016C13.555 23.1016 6.99808 22.6372 2.54492 21.9028" stroke="#F9FAFB" stroke-width="1.5" stroke-miterlimit="10"/>
<path d="M9.64339 28.9532C9.64339 29.9652 8.86378 30.7852 7.90248 30.7852C6.94126 30.7852 6.16187 29.9652 6.16187 28.9532C6.16187 27.9427 6.94126 27.1227 7.90248 27.1227C8.86378 27.1227 9.64339 27.9427 9.64339 28.9532Z" stroke="#F9FAFB" stroke-width="1.5" stroke-miterlimit="10"/>
<path d="M35.5711 28.9532C35.5711 29.9652 34.7917 30.7852 33.8298 30.7852C32.8685 30.7852 32.0898 29.9652 32.0898 28.9532C32.0898 27.9427 32.8685 27.1227 33.8298 27.1227C34.7917 27.1227 35.5711 27.9427 35.5711 28.9532Z" stroke="#F9FAFB" stroke-width="1.5" stroke-miterlimit="10"/>
<path d="M13.5769 27.7761H28.1555" stroke="#F9FAFB" stroke-width="1.5" stroke-miterlimit="10"/>
<path d="M13.5769 30.1498H28.1555" stroke="#F9FAFB" stroke-width="1.5" stroke-miterlimit="10"/>
</svg>
